<?xml version="1.0" encoding="UTF-8"?><svg id="Layer_1" xmlns="http://www.w3.org/2000/svg" xmlns:xlink="http://www.w3.org/1999/xlink" viewBox="0 0 40.31 39.05"><defs><style>.cls-1{fill:#be1e2d;}</style></defs><image width="640" height="580" transform="translate(5.51 7.4) scale(.05)" xlink:href="hjerte.png"/><path class="cls-1" d="m20.12,12.31c.1-.28.27-.69.56-1.13.22-.33.48-.64,1.08-1.18.85-.77,1.27-1.15,1.9-1.49.97-.53,1.87-.7,2.41-.77.98-.12,1.73,0,2.31.1.55.1,1.36.24,2.31.72.37.19,1.25.67,2.11,1.59.88.95,1.31,1.89,1.49,2.36.09.23.44,1.17.51,2.47.07,1.41-.23,2.46-.46,3.24-.23.77-.68,2.24-1.9,3.75-.8.99-1.65,1.65-2.26,2.05l-3.9,2.93-6.16,5.39c-1.65-1.74-3.13-2.96-4.17-3.75-1.79-1.37-2.48-1.6-4.57-3.24-1.81-1.42-2.72-2.13-3.65-3.34-.65-.85-1.78-2.36-2.22-4.62-.21-1.08-.69-3.5.68-5.91,1.29-2.28,3.43-3.13,4.11-3.39.75-.29,2.89-1.07,5.34-.21,3.11,1.09,4.29,3.95,4.48,4.41Z"/></svg>